<svg height="160" width="320" xmlns="http://www.w3.org/2000/svg"><linearGradient id="a" x1="100%" x2="0%" y1="50%" y2="50%"><stop offset="0" stop-color="#f2acac"/><stop offset="1" stop-color="#e3ffdb"/></linearGradient><mask id="b" fill="#fff"><rect fill-rule="evenodd" height="160" rx="8" width="320"/></mask><g fill="none" fill-rule="evenodd"><rect height="156" rx="8" stroke="url(#a)" stroke-width="4" width="316" x="2" y="2"/><g mask="url(#b)" stroke-width="2"><path d="M255.836-4.817L176.524 10.6c-3.138.61-5.682-1.488-5.682-4.684v-33.762c0-3.197 2.544-6.282 5.682-6.892l79.312-15.417c3.138-.61 5.682 1.488 5.682 4.684v33.761c0 3.196-2.544 6.282-5.682 6.892zM221.59 57.788l-45.066 8.76c-3.138.61-5.681-1.486-5.681-4.683V28.103c0-3.197 2.543-6.283 5.681-6.893l45.066-8.76c3.138-.609 5.681 1.488 5.681 4.684v33.762c0 3.197-2.543 6.283-5.681 6.892zm-50.748 43.617V84.052c0-3.197 2.544-6.283 5.682-6.893l111.823-21.736c3.138-.61 5.681 1.487 5.681 4.684v33.762c0 3.195-2.543 6.281-5.681 6.892l-83.294 16.19" stroke="#eccfc0"/><path d="M406.354 77.822l-97.39 18.931c-3.138.61-5.682-1.487-5.682-4.683V58.308c0-3.197 2.544-6.283 5.682-6.893l97.39-18.93c3.138-.61 5.682 1.487 5.682 4.683V70.93c0 3.197-2.544 6.283-5.682 6.892z" stroke="#f2adac"/><path d="M313.972 39.831l-70.405 13.685c-3.137.61-5.681-1.486-5.681-4.683V15.07c0-3.197 2.544-6.283 5.681-6.892l70.405-13.686c3.138-.61 5.682 1.488 5.682 4.684v33.762c0 3.196-2.544 6.282-5.682 6.892z" stroke="#f1b7b2"/><g stroke-linejoin="round"><path d="M294.028 156.973l-144.4-64.952c-10.1-5.305-12.512-4.502-17.496-4.18" stroke="#ebd1c1"/><path d="M226.826 218.71L74.093 138.644s.057-2.06 2.643-4.578c2.5-2.433 10.397-7.28 10.397-7.28" stroke="#e9e0ca"/><path d="M74.093 138.645c-8.52-4.662-11.576-5.788-18.328-6.27-6.753-.483-28.296-1.447-28.296-1.447l-1.987-7.074 13.08-11.575 28.712-10.874" stroke="#e5f3d4"/><path d="M32.292 131.15v5.244c0 1.447 0 3.698 3.216 7.396 3.216 3.697 12.38 13.022 18.006 19.132 5.627 6.11 11.415 10.129 21.866 10.45 10.45.321 49.356 4.18 53.214 4.823 3.859.644 6.27 1.93 11.898 4.823 5.627 2.894 69.936 36.817 69.936 36.817" stroke="#e5f3d4"/><path d="M288.402 156.973L157.246 97.707l-64.503 37.24 152.572 78.939" stroke="#e9dfc9"/><path d="M89.473 127.14c-9.167-18.4-25.026-30.34-42.229-35.118l53.537-24.599s13.803 3.852 23.634 12.058c9.83 8.206 14.256 20.268 14.256 20.268" stroke="#e7e9cf"/><path d="M137.495 97.091l2.813-1.565a1.451 1.451 0 0 1 1.968.56 1.451 1.451 0 0 1-.56 1.968L89.1 127.348a1.45 1.45 0 0 1-1.968-.56 1.45 1.45 0 0 1 .56-1.968" stroke="#e8e6cd"/><path d="M142.276 96.086l7.352-4.064" stroke="#eccfc0"/></g></g><text font-family="IBMPlexSans-Medium, IBM Plex Sans" font-size="24" font-weight="400" letter-spacing=".667" fill="#e5f3d4" mask="url(#b)"><tspan x="14" y="31">OFFERS</tspan></text></g></svg>