<?xml version="1.0" encoding="UTF-8"?>
<svg width="320px" height="160px" viewBox="0 0 320 160" version="1.1" xmlns="http://www.w3.org/2000/svg" xmlns:xlink="http://www.w3.org/1999/xlink">
    <!-- Generator: Sketch 62 (91390) - https://sketch.com -->
    <title>offers</title>
    <desc>Created with Sketch.</desc>
    <defs>
        <linearGradient x1="100%" y1="50%" x2="0%" y2="50%" id="linearGradient-1">
            <stop stop-color="#F2ACAC" offset="0%"></stop>
            <stop stop-color="#E3FFDB" offset="100%"></stop>
        </linearGradient>
        <rect id="path-2" x="0" y="0" width="320" height="160" rx="8"></rect>
    </defs>
    <g id="offers" stroke="none" stroke-width="1" fill="none" fill-rule="evenodd">
        <mask id="mask-3" fill="white">
            <use xlink:href="#path-2"></use>
        </mask>
        <rect stroke="url(#linearGradient-1)" stroke-width="4" x="2" y="2" width="316" height="156" rx="8"></rect>
        <g id="Group-33" mask="url(#mask-3)" stroke-width="2">
            <g transform="translate(25.000000, -80.000000)">
                <path d="M230.836013,75.1828939 L151.524116,90.5996141 C148.386174,91.2092605 145.842444,89.1121543 145.842444,85.9163344 L145.842444,52.1542765 C145.842444,48.957492 148.386174,45.8716399 151.524116,45.2619936 L230.836013,29.8452733 C233.973955,29.235627 236.517685,31.3327331 236.517685,34.5285531 L236.517685,68.2906109 C236.517685,71.4873955 233.973955,74.5732476 230.836013,75.1828939 Z" id="Stroke-1" stroke="#ECCFC0"></path>
                <path d="M196.589807,137.788264 L151.524212,146.548071 C148.38627,147.157717 145.84254,145.061576 145.84254,141.864791 L145.84254,108.102733 C145.84254,104.905949 148.38627,101.820096 151.524212,101.21045 L196.589807,92.4506431 C199.727749,91.8409968 202.271479,93.9381029 202.271479,97.1339228 L202.271479,130.895981 C202.271479,134.092765 199.727749,137.178617 196.589807,137.788264 Z" id="Stroke-3" stroke="#ECCFC0"></path>
                <path d="M145.842154,181.405273 L145.842154,164.051576 C145.842154,160.854791 148.385884,157.768939 151.523826,157.159293 L263.346656,135.42328 C266.484598,134.812669 269.028328,136.909775 269.028328,140.106559 L269.028328,173.868617 C269.028328,177.064437 266.484598,180.150289 263.346656,180.7609 L180.052765,196.951254" id="Stroke-5" stroke="#ECCFC0"></path>
                <path d="M381.354116,157.822186 L283.964084,176.753055 C280.826141,177.362701 278.282412,175.265595 278.282412,172.069775 L278.282412,138.307717 C278.282412,135.110932 280.826141,132.02508 283.964084,131.415434 L381.354116,112.484566 C384.492058,111.87492 387.035788,113.972026 387.035788,117.167846 L387.035788,150.929904 C387.035788,154.126688 384.492058,157.21254 381.354116,157.822186 Z" id="Stroke-7" stroke="#F2ADAC"></path>
                <path d="M288.971961,119.830997 L218.56746,133.516206 C215.429518,134.125852 212.885788,132.029711 212.885788,128.832926 L212.885788,95.0708682 C212.885788,91.8740836 215.429518,88.7882315 218.56746,88.1785852 L288.971961,74.4933762 C292.109904,73.8837299 294.653633,75.980836 294.653633,79.1766559 L294.653633,112.938714 C294.653633,116.135498 292.109904,119.22135 288.971961,119.830997 Z" id="Stroke-9" stroke="#F1B7B2"></path>
                <path d="M269.028424,236.972797 L124.628103,172.02135 C114.52746,166.715884 112.115884,167.519421 107.13164,167.840643" id="Stroke-17" stroke="#EBD1C1" stroke-linejoin="round"></path>
                <path d="M201.826495,298.709132 L49.0927331,218.644823 C49.0927331,218.644823 49.1496463,216.584373 51.7358199,214.066688 C54.2361415,211.633891 62.1326045,206.787588 62.1326045,206.787588" id="Stroke-19" stroke="#E9E0CA" stroke-linejoin="round"></path>
                <path d="M49.0927331,218.644823 C40.5721543,213.982765 37.5171704,212.857042 30.7647588,212.374727 C24.0123473,211.892412 2.46926045,210.927781 2.46926045,210.927781 L0.482122186,203.854148 L13.562508,192.278585 L42.2737621,181.405273" id="Stroke-21" stroke="#E5F3D4" stroke-linejoin="round"></path>
                <path d="M7.29241158,211.149164 L7.29241158,216.393859 C7.29241158,217.840804 7.29241158,220.092251 10.5075241,223.789678 C13.7236013,227.487106 22.8875884,236.812186 28.5142765,242.922154 C34.1409646,249.031158 39.928746,253.050772 50.3795498,253.371994 C60.8293891,253.693215 99.7358199,257.551736 103.594341,258.195145 C107.452862,258.838553 109.864437,260.124405 115.49209,263.018296 C121.118778,265.912186 185.427781,299.835338 185.427781,299.835338" id="Stroke-23" stroke="#E5F3D4" stroke-linejoin="round"></path>
                <polyline id="Stroke-25" stroke="#E9DFC9" stroke-linejoin="round" points="263.401736 236.972797 132.245788 177.706881 67.7428939 214.947395 220.314598 293.885981"></polyline>
                <path d="M64.4730868,207.140836 C55.3062058,188.73955 39.4467203,176.800322 22.2444695,172.021543 L75.7814469,147.423473 C75.7814469,147.423473 89.5843408,151.275241 99.4148875,159.48135 C109.244469,167.68746 113.671158,179.749196 113.671158,179.749196" id="Stroke-27" stroke="#E7E9CF" stroke-linejoin="round"></path>
                <path d="M112.495466,177.091254 L115.308328,175.525659 C116.003826,175.138842 116.889357,175.390611 117.276174,176.086109 C117.66299,176.781608 117.411222,177.667138 116.715723,178.053955 L64.1009325,207.347846 C63.4054341,207.735627 62.5199035,207.482894 62.1330868,206.787395 C61.7453055,206.091897 61.9980386,205.206367 62.693537,204.81955" id="Stroke-29" stroke="#E8E6CD" stroke-linejoin="round"></path>
                <line x1="117.27627" y1="176.085627" x2="124.627717" y2="172.02164" id="Stroke-31" stroke="#ECCFC0" stroke-linejoin="round"></line>
            </g>
        </g>
        <text id="OFFERS" mask="url(#mask-3)" font-family="IBMPlexSans-Medium, IBM Plex Sans" font-size="24" font-weight="400" letter-spacing="0.6666666" fill="#E5F3D4">
            <tspan x="14" y="31">OFFERS</tspan>
        </text>
    </g>
</svg>