<?xml version="1.0" encoding="UTF-8"?>
<svg width="320px" height="160px" viewBox="0 0 320 160" version="1.1" xmlns="http://www.w3.org/2000/svg" xmlns:xlink="http://www.w3.org/1999/xlink">
    <!-- Generator: Sketch 62 (91390) - https://sketch.com -->
    <title>onboarding</title>
    <desc>Created with Sketch.</desc>
    <defs>
        <linearGradient x1="100%" y1="50%" x2="0%" y2="50%" id="linearGradient-1">
            <stop stop-color="#F2ACAC" offset="0%"></stop>
            <stop stop-color="#E3FFDB" offset="100%"></stop>
        </linearGradient>
        <rect id="path-2" x="0" y="0" width="320" height="160" rx="8"></rect>
    </defs>
    <g id="onboarding" stroke="none" stroke-width="1" fill="none" fill-rule="evenodd">
        <mask id="mask-3" fill="white">
            <use xlink:href="#path-2"></use>
        </mask>
        <rect stroke="url(#linearGradient-1)" stroke-width="4" x="2" y="2" width="316" height="156" rx="8"></rect>
        <g id="Group-17" mask="url(#mask-3)" stroke-width="2">
            <g transform="translate(169.000000, 132.500000) scale(-1, 1) translate(-169.000000, -132.500000) translate(-11.000000, 53.000000)">
                <path d="M16.7307327,46.1288317 C16.6441697,45.51729 16.5219632,44.5126506 16.3544385,43.5156492 C16.1415955,42.2467383 15.3798416,41.5791853 14.2428119,42.3684356 C13.1348062,43.1373182 10.4289505,42.4030608 11.221256,45.0880396 C12.0324017,47.837686 13.0991627,50.5124809 14.0589929,53.2188458 C14.2280453,53.6954512 14.3853861,54.2392702 15.0442829,54.167983 C15.6614257,54.1012786 15.8421895,53.5829194 15.9063479,53.072198 C16.1813126,50.893867 16.4272532,48.7119717 16.7307327,46.1288317 Z M32.5778614,150.586371 C33.7627553,150.675479 35.5922885,149.89845 35.8387383,151.465748 C36.0123734,152.567134 34.0112419,152.583429 33.018314,153.147106 C32.5854993,153.392537 32.0656124,153.510161 31.5706761,153.61811 C25.9303366,154.847304 20.3159661,156.212453 14.5284696,156.62439 C13.1791061,156.720119 12.62714,156.256243 12.3226421,154.869199 C11.7976634,152.477516 11.2859236,150.084306 7.63500424,150.629652 C6.35641867,150.8206 4.77791796,149.34903 3.41582461,148.50886 C2.58176521,147.994574 3.27426874,147.31531 3.50595191,146.724136 C5.27285431,142.210133 7.64569731,137.99961 9.99664498,133.779921 C10.7079887,132.503372 11.2884696,131.224786 11.2961075,129.718082 C11.3612843,116.326286 13.5406337,102.997629 12.479983,89.5717171 C12.3755983,88.252396 12.7152306,86.8689165 11.339389,85.8780255 C10.645867,85.3790156 10.9961924,84.4319151 11.0781726,83.706314 C11.5451033,79.5767525 12.233024,75.4807977 13.2453013,71.4490014 C14.0549194,68.2247864 12.0369844,64.7250976 8.67885149,64.2963564 C6.65837058,64.0381952 5.88439604,63.0030042 5.46787553,61.3191004 C4.36648939,56.8677284 2.99268458,52.4901895 1.28230269,48.2496238 C0.00982743989,45.0941499 -0.0232701556,42.0893975 0.865782178,38.8707836 C1.70442433,35.8344611 3.25542857,33.7263989 6.4358529,32.927983 C9.19059123,32.2364979 11.1830665,30.0902461 13.6552023,28.7984215 C16.3376351,27.396611 19.0770976,26.4963564 21.9199264,25.7035417 C22.2468289,25.612396 22.6847355,25.6551683 22.8940141,25.4530184 C25.5321471,22.9034851 29.9045941,22.6723112 31.362925,18.3813352 C32.674099,14.5252107 35.5790495,11.8590721 39.4443395,10.0519434 C44.5398416,7.66993494 48.6154286,9.89358416 51.5962489,13.6651825 C52.2755134,14.5247016 52.7485545,15.5446167 53.3850467,16.4413069 C54.1014823,17.4510382 53.8580877,18.2367242 52.8458105,18.7326789 C51.5768996,19.3549137 50.9847072,20.4196379 50.6364187,21.6773465 C50.3242829,22.8041924 49.8283281,23.7288883 48.582331,24.0247298 C48.4209165,24.0629194 48.1602093,24.1382801 48.1378048,24.2396096 C47.3037454,28.0295389 42.7194738,28.8860028 41.6628967,32.5908967 C41.2937313,33.8862857 41.6562772,34.7997793 42.2281018,35.6613352 C46.2099972,41.6601471 45.4151457,47.6136407 42.3742405,53.6857765 C40.9006337,56.6289165 40.804396,59.9320566 40.7840283,63.1465969 C40.7417652,69.8486054 40.8660085,76.5511231 42.1043678,83.1757341 C42.5325997,85.4706704 42.86714,87.7065403 40.2834908,89.1765827 C39.2060368,89.7891429 39.3883281,91.0845318 39.3638868,92.1935559 C39.2269137,98.3807694 39.2187666,104.580713 38.1626987,110.705296 C37.3968713,115.144956 36.3789929,119.344786 32.9398982,122.814433 C29.3643395,126.421562 26.9573805,131.017545 24.2703649,135.336526 C23.9230948,135.895112 23.4678755,136.64159 23.5839717,137.190501 C24.1695446,139.962042 23.5574936,142.745296 23.8273663,145.534659 C24.0651598,147.999666 25.2118642,149.124475 27.3148345,149.858733 C29.0359095,150.459581 30.7972107,150.522721 32.5778614,150.586371 Z" id="Stroke-1" stroke="#F1ADAC"></path>
                <path d="M270.749788,141.614631 C270.740113,132.343231 272.224413,124.409482 273.408289,116.454857 C274.922122,106.272509 275.490382,96.0534993 275.25819,85.7733861 C275.198614,83.1250693 273.561047,80.9681245 273.461754,78.2230608 C273.193409,70.7598076 274.200085,63.5277284 276.11669,56.3654088 C277.741528,50.2917454 278.071994,44.1880396 276.573437,38.0242489 C275.448119,33.3931315 276.415078,28.9213918 278.886195,25.090727 C280.442801,22.6776577 282.959745,20.7218444 285.673239,19.4127072 C287.677935,18.4447298 288.874031,16.3015332 288.40099,14.0895955 C287.651966,10.5853239 288.009929,7.17117963 289.736096,3.99839321 C291.535587,0.690161245 294.180849,-0.36081471 297.832277,0.589850071 C298.812984,0.844956153 299.814569,1.04099576 300.81819,1.18560679 C302.976153,1.49672419 304.730835,2.56857709 305.559802,4.51675248 C306.250269,6.13802546 307.32314,7.64880339 305.761443,9.87143423 C304.779208,11.268662 303.462433,13.7092277 304.907016,15.9919434 C305.162122,16.3952249 305.245629,17.0546308 304.679915,17.3484356 C303.07901,18.1809675 302.739887,19.953471 302.131909,21.2977426 C301.205177,23.3447016 300.145545,23.2026365 298.544639,22.5371202 C297.889307,22.2636832 297.148939,21.587983 296.436068,22.2478982 C295.70181,22.9286902 296.534851,23.6573465 296.610212,24.3697086 C296.654003,24.7847016 296.709505,25.2567242 296.934059,25.5841358 C298.153069,27.363768 299.078274,30.6964413 300.972475,30.3013069 C303.486874,29.7763281 305.143281,26.8764696 306.360255,24.3676719 C306.81802,23.4231174 306.780339,22.2219293 306.894908,21.1302178 C307.094512,19.2344894 307.684158,17.4915191 308.776888,15.9288034 C309.070184,15.5092277 309.460736,15.031604 309.986223,15.1319151 C310.612532,15.2515757 310.591655,15.8631174 310.49389,16.3784215 C310.176153,18.0445035 310.787185,19.0781669 312.390127,19.7533579 C314.103055,20.4743762 314.046535,21.9617313 313.454342,23.4215898 C312.844328,24.9247298 312.570382,26.3260311 313.773098,27.6911796 C314.526704,28.5456068 313.819943,29.2574597 313.416153,29.9794965 C311.637539,33.1609392 309.904243,36.3693692 308.06198,39.5136407 C307.287496,40.8370354 307.298699,41.8085771 308.576775,42.7933579 C309.782546,43.7216181 310.9043,44.7695389 311.994993,45.8347723 C315.298133,49.0650976 314.392786,53.4716605 310.122687,55.0129901 C309.007044,55.4157624 307.84761,55.7019293 306.740113,56.1235417 C305.701358,56.5191853 304.953352,56.4428062 304.009307,55.6423536 C301.989844,53.9289165 300.636407,54.4742631 300.28099,57.1633154 C299.235106,65.0736407 298.283423,72.9860028 300.311542,80.9166959 C300.800368,82.8266818 301.644102,85.1506421 298.255417,85.6272475 C297.111768,85.7876436 297.206478,86.9414767 297.30628,87.9288034 C297.722801,92.0619293 297.958048,96.2169505 298.505431,100.330727 C299.686252,109.202919 298.536492,117.89282 296.964102,126.604107 C296.274144,130.429171 296.117822,134.369313 296.447779,138.2677 C296.663678,140.822835 295.820962,143.280204 296.119859,145.866908 C296.351542,147.876696 297.187638,149.084504 298.814512,150.094235 C300.660339,151.239412 302.662489,151.823457 304.744074,152.272566 C305.593918,152.455876 307.003876,152.233358 306.943281,153.430472 C306.889816,154.49316 305.481386,154.314942 304.630523,154.504871 C301.114031,155.288521 297.584809,155.52224 294.065262,154.483485 C292.649703,154.065946 291.324272,153.973782 289.908713,154.757941 C288.604668,155.479468 287.083706,155.049709 285.652362,154.901533 C284.535191,154.785946 284.133437,154.198337 284.029562,153.057233 C283.758161,150.061646 280.962178,148.825833 278.489024,150.592736 C276.630467,151.921222 274.586563,151.274546 272.614965,151.305607 C271.772758,151.318846 271.660226,150.492934 271.599632,149.788209 C271.330778,146.671434 270.532362,143.599977 270.749788,141.614631 Z" id="Stroke-3" stroke="#E5EFD2"></path>
                <path d="M111.215966,155.324062 C109.188356,156.107711 107.321652,154.695717 105.279276,154.315859 C104.808781,154.228277 104.56946,153.924289 104.401426,153.503185 C101.972571,147.404571 102.050478,141.151672 102.679332,134.708843 C104.063321,120.528815 106.653081,106.501545 107.838993,92.3031853 C108.030959,90.0077397 108.274354,87.9185177 107.068583,85.5186874 C106.142868,83.6759151 106.736588,80.8004979 107.280407,78.5345856 C109.54581,69.0997341 107.518201,60.0070608 105.452911,50.8975842 C104.517522,46.7726054 103.580605,42.666976 102.216475,38.6290693 C99.9561641,31.9392815 104.089799,23.5930863 110.155825,22.3990269 C112.018965,22.0324074 113.539926,20.7375276 114.867904,19.4950948 C116.282953,18.1706818 116.204537,16.3564243 115.333307,14.5650806 C113.254269,10.2929448 113.896871,5.46273267 116.810478,2.81339745 C119.948639,-0.0401244696 123.342925,0.557669024 126.16946,3.68360962 C129.733816,7.62629703 128.396673,11.9152362 127.783095,16.1904272 C127.533081,17.9272871 126.814608,19.6122093 126.193392,21.2767638 C125.495796,23.1439774 126.12516,24.501488 127.771383,25.2927751 C130.945697,26.8188289 132.408102,29.8811202 134.250874,32.5151796 C135.756051,34.6680509 136.321765,37.1503706 136.402727,40.0405545 C136.48267,42.8823649 138.252119,45.8300877 139.776645,48.4417426 C141.905584,52.0885884 141.615344,55.5577256 139.924311,59.1032419 C138.714467,61.6405545 137.060605,63.9253069 135.161822,65.9849958 C134.267678,66.9550099 133.957069,67.9224781 134.01359,69.1842603 C134.217777,73.7644583 134.140888,78.3421103 133.744226,82.9131429 C133.662755,83.8480226 133.85574,84.8231287 132.328158,84.6668062 C131.276673,84.5588571 131.224736,85.5151231 131.134608,86.2738218 C129.90796,96.562082 127.132345,106.563157 125.477465,116.762818 C124.586885,122.256 123.878088,127.861714 124.76714,133.469465 C125.143434,135.841799 124.212119,138.104656 124.536984,140.541149 C124.913788,143.368702 126.674071,144.376905 128.814212,145.282252 C130.397805,145.95286 132.108696,146.039932 133.799219,146.196255 C134.308922,146.2431 134.886857,146.348504 134.974438,146.952917 C135.06202,147.561403 134.531949,147.84146 134.055344,148.010512 C131.31639,148.981545 128.568272,149.637895 125.597635,149.039083 C123.040973,148.524289 120.450195,147.283383 117.858908,149.330342 C117.221907,149.833935 115.886291,149.462733 114.871468,149.473935 C114.382133,149.479027 113.795542,149.257528 113.567423,149.899112 C113.365782,150.465335 113.821511,150.818207 114.143321,151.210286 C114.998257,152.252605 117.224453,152.819847 116.440294,154.372379 C115.767649,155.70443 113.685556,155.215604 112.185471,155.321516 C111.932402,155.339338 111.676786,155.324062 111.215966,155.324062 Z" id="Stroke-5" stroke="#EEC0B7"></path>
                <path d="M350.079581,155.569697 C345.686767,155.276402 341.960996,155.395044 338.818761,152.504351 C336.219836,150.114195 335.495253,150.513912 334.600091,154.348651 C333.346965,152.148424 332.887163,149.803078 331.880487,147.92619 C330.433358,145.22899 330.149228,142.610207 330.353414,139.91759 C330.972594,131.740956 331.367728,123.527151 333.995678,115.617335 C334.987587,112.63295 334.725352,109.379711 334.363825,106.268028 C333.688634,100.459655 332.807728,94.6747044 332.002184,88.8816068 C331.896781,88.1244356 331.813782,87.2832475 331.204277,86.7781273 C327.354772,83.592611 328.243825,79.3754682 328.787134,75.3227949 C329.194999,72.2773069 328.830416,69.0627666 330.611576,66.2504894 C331.046427,65.563587 330.582042,64.7045771 329.745437,64.4016068 C327.384306,63.5471796 325.986059,61.5541952 324.322523,59.8870948 C322.940062,58.5015785 321.603938,57.0676888 319.832962,56.1771089 C318.171463,55.3410127 317.954546,54.2864724 318.917941,52.7028798 C320.785154,49.6349873 323.224702,47.0411542 325.521675,44.321041 C327.743796,41.6895276 330.519921,39.4419463 331.450727,35.8791174 C331.674263,35.0236719 332.510868,34.5491033 333.232396,34.1285092 C335.96473,32.5337143 338.017799,30.1262461 340.438506,28.1607581 C342.594942,26.4106591 340.84688,24.3871231 340.355508,22.5906874 C339.769426,20.448 339.125296,18.435157 339.76688,16.1539689 C341.918223,8.50740594 347.842693,7.16415276 354.035508,10.5849165 C356.224532,11.794761 357.317771,14.3193437 356.938931,16.4523564 C356.304984,20.0233324 356.866116,23.772017 355.176102,27.2233324 C354.365465,28.8787214 353.693839,29.7855955 351.801675,29.103785 C349.724164,28.3557793 348.708832,29.7601358 347.678223,31.1756945 C346.586512,32.6762885 347.629341,33.6468119 348.407389,34.7731485 C350.478789,37.7707723 352.478393,40.8188062 354.515168,43.8403621 C355.963825,45.989669 356.037658,48.1068967 355.009086,50.5556096 C352.37299,56.8268402 350.346399,63.2752702 350.033754,70.1707723 C349.871321,73.7448034 350.211463,77.0881697 351.160091,80.6341952 C352.018591,83.8436436 351.39381,87.4354965 352.949907,90.7457652 C355.002467,95.1141386 356.801958,99.6098105 358.358563,104.196119 C359.586229,107.814959 359.915678,111.441437 359.264928,115.218636 C358.1391,121.751593 357.831547,128.357364 357.570331,134.975864 C357.440487,138.270348 357.354433,141.525624 355.446484,144.683134 C354.150076,146.828877 355.476017,149.78933 356.255593,152.304747 C356.471491,153.002342 357.256668,153.715723 356.652764,154.403644 C355.973499,155.177109 355.049822,154.590008 354.285013,154.32981 C352.03183,153.565001 350.634603,152.351593 349.82753,149.735864 C346.80241,139.933884 346.923089,130.004605 347.725069,119.982653 C347.789228,119.181692 348.167559,118.300277 347.221986,117.56602 C346.179157,118.24172 346.099214,119.436798 345.891463,120.409867 C344.243202,128.125171 343.585324,136.002908 342.307757,143.75742 C341.267983,150.070405 344.658704,152.314421 349.03217,154.589499 C349.243485,154.698976 349.395734,154.922003 350.079581,155.569697 Z" id="Stroke-7" stroke="#E4F9D7"></path>
                <path d="M242.730687,22.9510438 C242.589641,20.5186252 241.456685,19.8016803 239.625115,20.2976351 C238.332272,20.6484696 237.155525,20.7752588 235.981324,20.005867 C235.563785,19.73243 234.998071,19.4370976 234.646727,19.9916096 C234.471564,20.2681018 234.564238,20.8103932 234.698156,21.1714116 C235.608085,23.6226704 236.91213,25.9267723 237.387717,28.5414823 C237.527745,29.3134201 238.245199,29.5980594 238.696854,29.09243 C240.423021,27.1615672 241.6237,24.8768147 242.730687,22.9510438 Z M260.72916,151.95325 C256.150999,151.074891 251.334025,152.654919 246.983983,149.961793 C243.947151,148.08185 243.833601,148.231044 243.457307,152.040832 C242.374252,150.427197 241.33346,149.185273 240.496345,147.618993 C235.493007,138.252373 239.338948,128.771185 239.848141,119.343463 C239.962201,117.226235 240.642993,115.215429 241.321748,113.191893 C242.616119,109.33475 241.365539,105.440945 241.013686,101.591949 C240.504492,96.0218784 239.405143,90.523604 238.294082,85.0385686 C238.159146,84.3740707 238.20701,83.5400113 237.572554,83.2049618 C234.167066,81.408017 234.6009,78.2189364 234.574421,75.1917793 C234.568311,74.4305347 234.617194,73.6662348 234.679315,72.9065177 C234.785228,71.6090919 234.09527,71.2750608 233.16039,71.916645 C231.245822,73.2293465 228.665228,72.4136181 226.822965,74.1570976 C226.110603,74.8317793 224.591678,74.5552871 223.785624,73.6631796 C223.020815,72.8168996 224.231678,72.2089222 224.431281,71.454297 C224.6594,70.5963055 225.338665,69.8488091 225.862116,69.0809448 C226.87032,67.6032645 226.871338,66.106744 225.500079,64.9865177 C224.298891,64.0042829 224.506642,63.0785686 224.904322,61.8692334 C226.546472,56.8760792 228.114789,51.8584837 229.715694,46.8520905 C230.732045,43.6757397 232.313092,40.7835191 234.152809,38.0185969 C234.668622,37.243604 235.176798,36.4538444 235.582116,35.6192758 C237.201861,32.2871117 237.106133,31.7539859 234.441522,29.2462065 C233.392074,28.2588798 232.380815,27.1748062 231.172498,26.4247638 C227.27411,24.0055842 227.226755,17.8769279 228.300136,14.6491485 C228.432017,14.2524866 228.580192,13.7392192 228.888255,13.5416521 C231.981607,11.5644526 233.384945,8.13197737 235.801579,5.60637624 C239.1037,2.15455163 245.857137,2.64948798 249.080334,6.47557001 C251.405822,9.23590948 253.524068,12.1388232 254.070433,15.9318076 C254.247632,17.1660934 254.20486,18.0210297 253.054591,18.3591344 C251.076373,18.9406337 250.974535,20.449884 250.384888,22.1088373 C249.205086,25.4272532 250.009612,27.5378614 252.557109,29.8231231 C254.923842,31.9459519 256.686161,34.7460085 258.699004,37.2604074 C260.247972,39.1953437 260.441465,41.4179745 260.049895,43.7699406 C258.672526,52.0392475 257.266642,60.3044809 255.961069,68.5854993 C255.471225,71.6971825 255.501267,74.8348345 256.274733,77.9317511 C256.454987,78.6532786 257.028339,79.4919208 256.536458,80.1370693 C253.730801,83.814976 256.037448,87.4485827 256.632696,91.0389081 C257.422455,95.8003791 258.479033,100.521624 259.543248,105.232685 C260.352866,108.819446 260.10998,112.310478 259.005539,115.765358 C256.71824,122.921567 255.88469,130.324736 255.174874,137.754382 C255.00073,139.584934 255.081692,141.433307 254.092328,143.16813 C253.367236,144.440605 255.260928,147.798738 257.166331,149.128243 C258.373629,149.970959 259.82585,150.486263 260.72916,151.95325 Z" id="Stroke-9" stroke="#E8E4CC"></path>
                <path d="M90.84129,155.727344 C87.4770467,155.802195 84.0898897,156.697867 80.9980651,154.22675 C78.7285884,152.413001 78.512181,152.572888 77.8425912,155.589861 C76.6159434,153.971644 75.1321528,152.697132 75.0547553,150.555972 C75.014529,149.43931 73.7934823,149.277386 73.2257313,148.567061 C72.8947553,148.152577 72.4013465,147.893907 71.8982631,148.287004 C71.4114738,148.667372 71.5779802,149.205081 71.7470325,149.689833 C72.6238642,152.199649 73.8489844,154.499678 75.7778105,156.379621 C76.2966789,156.88525 77.0915304,157.193822 77.2122093,158.667429 C73.9416577,157.493737 70.5621386,157.433143 68.4500028,154.407004 C68.158744,153.989975 67.8578105,153.579564 67.5619689,153.166099 C65.3836379,150.122648 65.0353494,150.130795 62.9965375,153.640668 C62.8758586,151.304996 61.991389,149.547768 62.4089279,147.316481 C62.7419406,145.536849 61.5881075,143.596311 61.9201018,141.507598 C63.3066365,132.780526 65.1326054,124.183808 68.6246563,116.022959 C69.2331429,114.60129 69.0610354,113.236651 68.8940198,111.793595 C67.9550665,103.675519 64.9737369,96.0304837 61.7118416,88.7994229 C57.7090693,79.9241754 58.945901,71.9135389 62.1996492,63.6136803 C63.1879943,61.0921528 62.4099463,58.748843 61.9980085,56.3800736 C61.2281075,51.9572164 59.0737086,47.8663536 58.6724639,43.3462405 C58.3032984,39.1820537 58.4097199,35.183355 62.5346987,32.550314 C63.6401584,31.8445714 63.7995361,30.2370467 65.0083621,29.3994229 C65.7232702,28.9044866 64.8612051,28.3504837 64.3555757,28.1544441 C61.0259576,26.8636379 61.0279943,24.107372 61.5270042,21.3485601 C62.2582065,17.3030156 64.3270608,13.8924356 67.3435248,11.126495 C70.4989986,8.23223762 75.6601867,8.65232249 79.5397341,11.9885601 C82.4665799,14.505505 83.2670325,19.837273 80.9293239,23.1786025 C79.7744724,24.8294088 79.8340481,26.8371598 78.6730863,28.5042603 C77.8614314,29.670314 77.2483621,30.2365375 75.9086733,30.0557737 C75.3709646,29.9834682 74.6652221,29.5226478 74.3714173,30.3449958 C74.1234399,31.0385177 74.7232702,31.4718416 75.2294088,31.7345856 C79.1211768,33.7550665 81.415604,37.4635248 84.4503989,40.3873154 C86.3776973,42.2443451 87.0533975,44.4476266 86.5513324,47.0989986 C86.0151513,49.9316436 85.83286,52.844232 85.1225347,55.626976 C84.274727,58.9479378 84.6403281,62.0290693 86.1546704,64.9925771 C88.3711909,69.3268345 88.3457313,74.115802 89.1023932,78.7464102 C89.4262405,80.727174 88.8141895,82.692662 86.8374993,83.0165092 C83.4610354,83.5689844 83.6978105,86.16129 83.7655332,88.166495 C84.0298048,96.0467779 83.8907949,103.960158 84.8470608,111.797669 C85.3282489,115.74443 84.7671174,119.576622 84.4310495,123.452096 C83.7996492,130.721347 83.8907949,138.054755 83.2247694,145.278178 C82.6997907,150.977075 85.7142178,152.634501 89.7159717,154.316368 C90.2256747,154.530229 90.9217426,154.609663 90.84129,155.727344 Z" id="Stroke-11" stroke="#F0B8B3"></path>
                <path d="M184.852668,130.7326 C184.348057,119.259446 187.076317,108.136617 188.357448,96.8589929 C188.663474,94.1633211 189.359542,91.3622461 188.939457,88.7607751 C187.436317,79.445075 190.240447,70.4674795 190.67428,61.3152306 C191.013403,54.1518925 190.472639,47.0613692 189.581041,40.002925 C188.86817,34.358512 190.564803,29.449884 193.147434,24.6873946 C194.044124,23.0340424 194.570631,21.2050184 196.258099,19.9157397 C197.452158,19.0032645 197.488311,17.2944102 197.067208,15.659389 C196.330405,12.7977199 195.532498,9.90804526 196.274393,6.89056294 C197.144096,3.351157 199.281692,1.34136917 202.862342,1.30317963 C205.822795,1.27160962 208.795468,1.60462235 211.196317,3.75291089 C213.247859,5.58753607 213.798806,7.76637624 213.034506,10.4824158 C212.009499,14.122133 211.420362,17.8820198 210.005313,21.4173522 C209.585737,22.4657822 209.289895,23.6348911 207.770461,23.2540141 C205.980136,22.8059236 205.975553,23.5574936 206.338608,24.9954569 C206.86817,27.0963904 207.628396,29.2003791 209.017477,30.708611 C212.151564,34.111553 212.650065,38.4519208 213.948509,42.5351457 C214.89561,45.5144385 216.531649,48.174976 218.637165,50.4347779 C220.710603,52.6614823 221.243728,56.0939576 219.580192,58.8273098 C219.285369,59.311553 219.201352,59.9286959 219.044521,60.491355 C218.63411,61.9644526 217.661041,62.8102235 216.217986,62.1610014 C213.789641,61.0687808 213.955129,62.4089788 214.012158,64.0944102 C214.161861,68.5732786 215.031564,73.0633494 213.986699,77.5345799 C213.253969,80.6712136 212.474393,83.7971542 211.680051,86.918512 C211.324124,88.313703 210.095949,89.2343253 208.941607,89.1391061 C206.78568,88.9624158 206.812158,90.3565884 206.577929,91.6524866 C205.417986,98.0769844 204.609386,104.585499 203.066529,110.916306 C201.242597,118.39789 200.316373,125.921737 200.397335,133.584085 C200.441126,137.727904 200.726784,141.869686 200.863757,146.014014 C200.928424,147.9683 201.973799,148.720888 203.81097,148.647564 C205.332441,148.586461 206.504096,148.823236 207.24039,150.550421 C207.862116,152.01028 209.82404,151.51738 211.078184,152.173222 C211.576175,152.433929 212.382229,152.466008 212.28701,153.235909 C212.191791,153.9997 211.416289,153.893788 210.85312,153.983915 C210.434563,154.051129 210.010914,154.111723 209.588283,154.120379 C203.495779,154.238003 197.368141,153.838286 191.377986,155.419332 C190.39015,155.68004 189.533177,155.661709 189.24701,154.355627 C189.175214,154.029743 188.673658,153.546518 188.387491,153.558738 C185.930122,153.666178 186.026868,151.948668 185.62155,150.233703 C184.093969,143.765414 184.678014,137.235513 184.852668,130.7326 Z" id="Stroke-13" stroke="#EAD8C5"></path>
                <path d="M160.207231,27.8943479 C161.352407,30.1811372 163.406495,31.5503593 164.565929,33.5097369 C167.424034,38.3399491 171.352464,40.4037115 176.956651,39.2391853 C178.990371,38.8160453 180.257245,39.6888034 180.014868,42.0234569 C179.981262,42.3422122 180.118744,42.6879547 180.215491,43.0097652 C181.550597,47.4285488 181.552124,47.4280396 177.23467,49.5625799 C176.897584,48.2992702 176.667938,46.9463423 175.357782,46.2680962 C174.06443,45.5990156 172.875972,46.383174 171.640158,46.4687185 C169.996481,46.5817595 169.364571,47.5645035 169.19501,49.1536973 C168.628786,54.4625516 167.895038,59.7535842 167.35733,65.0649844 C166.856792,70.0123112 167.469861,74.8893692 168.762704,79.6757907 C169.039197,80.6997793 169.397669,81.5628628 168.186806,82.2950835 C167.32525,82.8159887 167.655208,83.8308119 167.672521,84.6506139 C167.743808,88.1569222 168.957216,91.4636266 169.506636,94.8889731 C170.298942,99.8266252 171.205307,104.745437 172.069409,109.671378 C172.560781,112.470925 172.040385,115.179327 170.621262,117.524164 C166.475406,124.37333 166.06856,131.628322 166.347598,139.499949 C166.550767,145.220741 168.838065,148.020798 173.293001,150.208803 C173.501262,150.310642 173.655547,150.523485 173.80576,150.658931 C173.747711,151.519977 173.130569,151.337686 172.669748,151.365692 C170.560668,151.495027 168.608928,151.574461 166.4474,152.431434 C163.932492,153.428436 160.765307,152.481335 158.378716,150.516866 C157.922478,150.14159 157.532945,149.685352 157.104713,149.274433 C154.408023,146.688238 153.994048,146.770727 152.665052,150.369709 C151.852379,148.457177 151.498999,146.579779 150.873199,144.843429 C148.32774,137.781929 151.812662,131.812651 153.858093,125.616781 C154.758348,122.890048 154.690116,120.111887 155.255321,117.420798 C156.755915,110.285465 154.831163,103.662382 152.898772,96.9888883 C152.096792,94.2198925 151.241856,91.4656634 150.472464,88.6875021 C149.910823,86.6578557 149.637895,84.5253522 147.725873,83.1500198 C147.162195,82.7447016 147.013001,82.0241924 146.950371,81.3250693 C146.358687,74.7091146 146.196764,68.2270778 148.811474,61.815819 C150.544769,57.5655785 149.701035,52.9543197 148.524289,48.5660877 C147.068504,43.1365545 145.394274,37.6948006 148.014076,32.1944894 C149.220866,29.6622687 149.960724,26.9202603 152.308107,24.8972334 C154.670257,22.8614767 154.358122,19.7548854 152.422167,17.3071909 C151.32129,15.9155644 150.755066,16.3621273 149.954105,17.4670778 C148.752407,19.1255219 147.439706,20.6795813 145.366269,21.3237115 C144.343298,21.6414484 143.732775,21.6709816 144.000102,20.2330184 C144.417641,17.9854371 144.607061,15.696611 145.000668,13.4434286 C146.067429,7.33514003 151.94658,4.14605941 157.752917,6.50515417 C158.913369,6.9771768 160.093171,6.79692221 161.269918,6.75313154 C165.320045,6.60291938 167.80542,8.9329901 169.394105,12.2386761 C170.803044,15.1721414 171.186976,18.2838246 168.86047,21.0747157 C167.919989,22.2025799 168.205137,23.7036832 167.559479,24.8717737 C165.514557,28.5720849 164.367344,29.0405431 160.207231,27.8943479 Z" id="Stroke-15" stroke="#ECCEBF"></path>
            </g>
        </g>
        <text id="PRIORITY" mask="url(#mask-3)" font-family="IBMPlexSans-Medium, IBM Plex Sans" font-size="24" font-weight="400" letter-spacing="0.6666666" fill="#E5F3D4">
            <tspan x="14" y="31">PRIORITY</tspan>
        </text>
    </g>
</svg>