<?xml version="1.0" encoding="UTF-8"?>
<svg width="320px" height="160px" viewBox="0 0 320 160" version="1.1" xmlns="http://www.w3.org/2000/svg" xmlns:xlink="http://www.w3.org/1999/xlink">
    <!-- Generator: Sketch 62 (91390) - https://sketch.com -->
    <title>access</title>
    <desc>Created with Sketch.</desc>
    <defs>
        <linearGradient x1="100%" y1="50%" x2="0%" y2="50%" id="linearGradient-1">
            <stop stop-color="#F2ACAC" offset="0%"></stop>
            <stop stop-color="#E3FFDB" offset="100%"></stop>
        </linearGradient>
        <rect id="path-2" x="0" y="0" width="320" height="160" rx="8"></rect>
    </defs>
    <g id="access" stroke="none" stroke-width="1" fill="none" fill-rule="evenodd">
        <mask id="mask-3" fill="white">
            <use xlink:href="#path-2"></use>
        </mask>
        <rect stroke="url(#linearGradient-1)" stroke-width="4" x="2" y="2" width="316" height="156" rx="8"></rect>
        <g id="network-signal" mask="url(#mask-3)" stroke="#E5F5D5" stroke-linecap="round" stroke-linejoin="round" stroke-width="2">
            <g transform="translate(0.000000, 55.000000)" id="Path">
                <path d="M49.94,105.27 L49.94,105.27 C49.4240443,78.8609663 28.1389993,57.5759663 1.72999934,57.0599663"></path>
                <path d="M78.47,105.67 L78.47,105.67 C77.650591,63.4106953 43.589098,29.3492953 1.32989797,28.5299953"></path>
                <path d="M107,106.07 L107,106.07 C105.872048,47.9626857 59.0370978,1.12788571 0.929997781,-0.000114291"></path>
            </g>
        </g>
        <g id="network" mask="url(#mask-3)" stroke="#EEC2B8" stroke-linecap="round" stroke-linejoin="round" stroke-width="2">
            <g transform="translate(204.000000, -42.000000)" id="Path">
                <path d="M108.863377,19.3246512 C133.721835,44.1831092 133.721835,84.4864761 108.863377,109.345322 C84.0049194,134.203779 43.7015524,134.203779 18.842707,109.345322 C-6.01575092,84.4868636 -6.01575092,44.1834966 18.842707,19.3246512 C43.701165,-5.5338067 84.0045319,-5.5338067 108.863377,19.3246512"></path>
                <path d="M54.6705297,32.0042067 C59.5341423,36.8678192 59.5341423,44.7532835 54.6705297,49.616896 C49.8069172,54.4805085 41.921453,54.4805085 37.0578404,49.616896 C32.1942279,44.7532835 32.1942279,36.8678192 37.0578404,32.0042067 C41.921453,27.1405942 49.8069172,27.1405942 54.6705297,32.0042067"></path>
                <path d="M81.1998789,91.2693968 C83.9018828,93.9714006 83.9018828,98.352211 81.1998789,101.054243 C78.497875,103.756246 74.1170646,103.756246 71.4150331,101.054243 C68.7130292,98.3522387 68.7130292,93.9714283 71.4150331,91.2693968 C74.117037,88.5673929 78.4978474,88.5673929 81.1998789,91.2693968"></path>
                <path d="M108.064657,47.7989916 C111.847468,51.5818026 111.847468,57.7149648 108.064657,61.4977315 C104.281846,65.2805424 98.1486841,65.2805424 94.3659174,61.4977315 C90.5831064,57.7149205 90.5831064,51.5817583 94.3659174,47.7989916 C98.1487284,44.0161806 104.281891,44.0161806 108.064657,47.7989916"></path>
                <path d="M58.3181838,39.4378378 L58.3181838,39.4378378 C70.6917595,39.9091824 82.481542,44.8216037 91.5289971,53.2756758"></path>
                <path d="M103.147243,64.1466811 L105.361297,67.1024432 C105.361297,67.1024432 113.664,78.1727135 113.664,103.080822"></path>
                <path d="M90.5492757,6.53145946 L91.5289946,8.99459459 L91.5289918,8.99458634 C95.5355662,20.8633552 97.4095194,33.3476311 97.0641269,45.8696566"></path>
                <path d="M94.2965652,61.5783291 L94.2965652,61.5783291 C93.6032784,73.0096009 89.4833722,83.9671204 82.4735719,93.0234318"></path>
                <path d="M72.9973622,102.239481 L72.1560216,103.091892 C72.1560216,103.091892 58.3181838,116.92973 27.8749405,116.92973"></path>
                <path d="M39.3990919,51.4601514 L38.9452108,53.2756757 L38.945209,53.2756844 C35.9293741,68.2453467 37.8724611,83.7900542 44.4803442,97.5567655 C53.8900739,116.409436 77.691155,125.232441 77.691155,125.232441 L79.7557604,126.001825"></path>
                <path d="M33.4100757,40.8105514 C33.4100757,40.8105514 12.1772973,42.3327135 1.44467027,51.731373"></path>
                <path d="M1.7491027,78.3609081 L2.96683243,78.1727135 C2.96683243,78.1727135 41.0540973,72.3165405 72.0121081,90.7374703"></path>
            </g>
        </g>
        <text id="PRIORITY" mask="url(#mask-3)" font-family="IBMPlexSans-Medium, IBM Plex Sans" font-size="24" font-weight="400" letter-spacing="0.6666666" fill="#E5F3D4">
            <tspan x="14" y="31">PRIORITY</tspan>
        </text>
        <g id="building-house" mask="url(#mask-3)" stroke-linecap="round" stroke-linejoin="round">
            <g transform="translate(124.000000, 86.000000)">
                <g id="Group" transform="translate(0.749854, 36.500000)">
                    <path d="M47.5001464,7.10542736e-15 L13.7501464,7.10542736e-15 L13.7501463,7.10542736e-15 C12.9632513,7.10542736e-15 12.2222813,0.3704855 11.7501463,1 L0.50014627,16 L0.500146398,16 C-0.328278602,17.1045698 -0.104423602,18.6715748 1.0001459,19.5 C1.4328864,19.8245553 1.9592209,20 2.5001459,20 L31.2501459,20 L31.2501458,20 C32.0370408,20 32.7780108,19.6295143 33.2501458,19 L47.5001464,7.10542736e-15 Z" id="Path" stroke="#EAD9C5" stroke-width="2"></path>
                    <line x1="62.5001464" y1="20" x2="47.5001464" y2="0" id="Path" stroke="#EAD9C5" stroke-width="2"></line>
                    <path d="M37.5001464,40.0000004 L37.5001464,13.3350004 M4.50014638,20 L4.50014638,37.5" id="Shape" stroke="#EAD9C5" stroke-width="2"></path>
                    <line x1="57.5001464" y1="38.5" x2="57.5001464" y2="14.335" id="Path" stroke="#EAD9C5" stroke-width="2"></line>
                </g>
                <g id="Group" transform="translate(125.000000, 36.500000)">
                    <path d="M47.5001464,7.10542736e-15 L13.7501464,7.10542736e-15 L13.7501463,7.10542736e-15 C12.9632513,7.10542736e-15 12.2222813,0.3704855 11.7501463,1 L0.50014627,16 L0.500146398,16 C-0.328278602,17.1045698 -0.104423602,18.6715748 1.0001459,19.5 C1.4328864,19.8245553 1.9592209,20 2.5001459,20 L31.2501459,20 L31.2501458,20 C32.0370408,20 32.7780108,19.6295143 33.2501458,19 L47.5001464,7.10542736e-15 Z" id="Path" stroke="#EEC2B8" stroke-width="2"></path>
                    <line x1="62.5001464" y1="20" x2="47.5001464" y2="0" id="Path" stroke="#EEC2B8" stroke-width="2"></line>
                    <path d="M2.50014638,20 L2.50014638,37.5 M37.5001464,40.0000004 L37.5001464,13.3350004" id="Shape" stroke="#EEC2B8" stroke-width="2"></path>
                    <line x1="57.5001464" y1="38.5" x2="57.5001464" y2="14.335" id="Path" stroke="#EEC2B8" stroke-width="2"></line>
                </g>
                <g id="Group-2" transform="translate(30.953466, 0.500000)">
                    <path d="M82.2965344,25 L63.0465344,0.939999916 L63.0465345,0.94 C62.572925,0.346905 61.8555245,0.00108 61.0965345,3.55271368e-15 L18.4965345,3.55271368e-15 L18.4965344,3.55271368e-15 C17.7375444,0.00108170514 17.0201444,0.3469055 16.5465344,0.94 L0.546534375,20.94 L0.546534585,20.9399997 C-0.315030415,22.0189197 -0.138830415,23.5919947 0.940090585,24.4535597 C1.38213908,24.8065547 1.93084058,24.9991947 2.49653558,25 L41.0965356,25 L41.0965355,25 C41.8555255,24.9989181 42.5729255,24.6530947 43.0465355,24.0599997 L62.0915355,0.209999738" id="Path" stroke="#EBD3C2" stroke-width="2"></path>
                    <path d="M77.2965344,77.4999999 L77.2965344,18.7499999" id="Path" stroke="#EBD3C2" stroke-width="2"></path>
                    <line x1="47.2965344" y1="79.9999999" x2="47.2965344" y2="18.7499999" id="Path" stroke="#EBD3C2" stroke-width="2"></line>
                    <line x1="4.29653441" y1="24.9999999" x2="4.29653441" y2="34.9999999" id="Path" stroke="#EBD3C2" stroke-width="2"></line>
                </g>
            </g>
        </g>
    </g>
</svg>