<svg height="160" width="320" xmlns="http://www.w3.org/2000/svg"><linearGradient id="a" x1="100%" x2="0%" y1="50%" y2="50%"><stop offset="0" stop-color="#f2acac"/><stop offset="1" stop-color="#e3ffdb"/></linearGradient><mask id="b" fill="#fff"><rect fill-rule="evenodd" height="160" rx="8" width="320"/></mask><g fill="none" fill-rule="evenodd"><rect height="156" rx="8" stroke="url(#a)" stroke-width="4" width="316" x="2" y="2"/><g mask="url(#b)" stroke="#e5f5d5" stroke-linecap="round" stroke-linejoin="round" stroke-width="2"><path d="M49.94 160.27c-.516-26.409-21.801-47.694-48.21-48.21m76.74 48.61c-.82-42.26-34.88-76.32-77.14-77.14M107 161.07C105.872 102.963 59.037 56.128.93 55"/></g><g mask="url(#b)" stroke="#eec2b8" stroke-linecap="round" stroke-linejoin="round" stroke-width="2"><path d="M312.863-22.675c24.859 24.858 24.859 65.161 0 90.02-24.858 24.859-65.161 24.859-90.02 0-24.859-24.858-24.859-65.162 0-90.02 24.858-24.859 65.162-24.859 90.02 0"/><path d="M258.67-9.996c4.864 4.864 4.864 12.75 0 17.613-4.863 4.864-12.749 4.864-17.612 0-4.864-4.864-4.864-12.75 0-17.613 4.863-4.863 12.749-4.863 17.613 0M285.2 49.27a6.919 6.919 0 1 1-9.785 9.785 6.919 6.919 0 0 1 9.785-9.785M312.065 5.8c3.782 3.783 3.782 9.916 0 13.699-3.783 3.783-9.916 3.783-13.7 0-3.782-3.783-3.782-9.916 0-13.699 3.784-3.783 9.917-3.783 13.7 0"/><path d="M262.318-2.562a51.516 51.516 0 0 1 33.211 13.838m11.618 10.87l2.214 2.956s8.303 11.07 8.303 35.979m-23.115-96.55l.98 2.464a106.142 106.142 0 0 1 5.535 36.875m-2.767 15.708a57.012 57.012 0 0 1-11.823 31.445m-9.477 9.216l-.841.853S262.318 74.93 231.875 74.93"/><path d="M243.4 9.46l-.455 1.816a70.263 70.263 0 0 0 5.535 44.28c9.41 18.853 33.211 27.676 33.211 27.676l2.065.77M237.41-1.19S216.177.333 205.445 9.73"/><path d="M205.75 36.36l1.217-.187s38.087-5.856 69.045 12.564"/></g><text font-family="IBMPlexSans-Medium, IBM Plex Sans" font-size="24" font-weight="400" letter-spacing=".667" fill="#e5f3d4" mask="url(#b)"><tspan x="14" y="31">PRIORITY</tspan></text><g stroke-width="2" mask="url(#b)" stroke-linecap="round" stroke-linejoin="round"><g stroke="#ead9c5"><path d="M172.25 122.5H138.5a2.5 2.5 0 0 0-2 1l-11.25 15a2.5 2.5 0 0 0 2 4H156a2.5 2.5 0 0 0 2-1zm15 20l-15-20m-10 40v-26.665m-33 6.665V160m53 1v-24.165"/></g><g stroke="#eec2b8"><path d="M296.5 122.5h-33.75a2.5 2.5 0 0 0-2 1l-11.25 15a2.5 2.5 0 0 0 2 4h28.75a2.5 2.5 0 0 0 2-1zm15 20l-15-20m-45 20V160m35 2.5v-26.665m20 25.165v-24.165"/></g><g stroke="#ebd3c2"><path d="M237.25 111.5L218 87.44a2.5 2.5 0 0 0-1.95-.94h-42.6a2.5 2.5 0 0 0-1.95.94l-16 20a2.5 2.5 0 0 0 1.95 4.06h38.6a2.5 2.5 0 0 0 1.95-.94l19.045-23.85M232.25 164v-58.75m-30 61.25v-61.25m-43 6.25v10"/></g></g></g></svg>