<svg height="160" width="320" xmlns="http://www.w3.org/2000/svg"><linearGradient id="a" x1="100%" x2="0%" y1="50%" y2="50%"><stop offset="0" stop-color="#f2acac"/><stop offset="1" stop-color="#e3ffdb"/></linearGradient><mask id="b" fill="#fff"><rect fill-rule="evenodd" height="160" rx="8" width="320"/></mask><g fill="none" fill-rule="evenodd"><rect height="156" rx="8" stroke="url(#a)" stroke-width="4" width="316" x="2" y="2"/><g mask="url(#b)" stroke="#e7ebd0" stroke-width="2"><path d="M48 63l-83 11m63-21l-63 8M86 83l-121 17M67 73L-35 87m0 38l160-22m-19-10l-141 19M9 43l-44 6m160 54.574L-35 20v110l160-21.872zM86 114v56"/></g><g mask="url(#b)" stroke="#eccbbd" stroke-width="2"><path d="M271.746 141h-96.564a3.213 3.213 0 0 1-3.218-3.208V-9.792A3.213 3.213 0 0 1 175.182-13h96.564a3.213 3.213 0 0 1 3.218 3.208v147.584a3.213 3.213 0 0 1-3.218 3.208z"/><path d="M241.964-8h23.16l4.84 4.8v134.4l-4.84 4.8h-23.16m-36 0h-23.16l-4.84-4.8V-3.2l4.84-4.8h23.16m-26 145.5a2.5 2.5 0 1 1-5 0 2.5 2.5 0 0 1 5 0zm94 0a2.5 2.5 0 1 1-5 0 2.5 2.5 0 0 1 5 0z"/><path d="M205.964 139h37V-10h-37zm-23.5-147v144m18-144v144m48-144v144m5-144v144m6-144v144m-71-144v144m6-144v144m71-144v144"/><path d="M233.02 126h-18.111a.935.935 0 0 1-.944-.926v-5.148c0-.512.423-.926.944-.926h18.111c.52 0 .943.414.943.926v5.148a.934.934 0 0 1-.943.926zm1.444 15v79m-21 0v-79"/></g><g mask="url(#b)" stroke="#eadac6" stroke-linecap="round" stroke-linejoin="round" stroke-width="3"><path d="M134.472 20.46c-17.966 17.962-17.969 47.088-.006 65.054l.006.006"/><path d="M145.8 31.776c-11.714 11.715-11.714 30.709 0 42.424m11.3-31.108c-5.468 5.467-5.468 14.331-.001 19.799l.001.001"/></g><text font-family="IBMPlexSans-Medium, IBM Plex Sans" font-size="24" font-weight="400" letter-spacing=".667" fill="#e5f3d4" mask="url(#b)"><tspan x="14" y="31">FREE</tspan></text></g></svg>