<svg height="32" width="276" xmlns="http://www.w3.org/2000/svg"><g fill="#fff" fill-rule="evenodd"><path d="M236.531 31.49c-4.745 0-8.053-3.329-8.053-8.095 0-4.963 3.528-8.432 8.587-8.432 2.248 0 3.94.65 4.565.928l.05.023-.028 2.377-.118-.064c-1.545-.812-2.994-1.204-4.422-1.204-3.788 0-6.143 2.349-6.143 6.132 0 3.856 2.336 6.253 6.096 6.253 1.452 0 2.287-.285 2.733-.525l.044-.025v-6.164h2.323v7.428l-.045.023c-1.191.65-3.283 1.344-5.589 1.344M0 13.735l9.086-6.907 9.085 6.907L9.086 1zm101.547 10.217l6.08 7.582 2.052-1.7-4.733-5.594s1.071-.83 1.633-1.434c.718-.776 1.08-1.752 1.08-2.907 0-.896-.24-1.69-.717-2.365a4.69 4.69 0 0 0-1.97-1.555 6.98 6.98 0 0 0-1.902-.509 16.327 16.327 0 0 0-1.951-.117l-2.17.014-1.476.02v.35l.064 5.572V23.4l-.024 4.858-.048 2.966h2.571l-.021-3.678-.012-4.213.004-2.317.027-3.45h.482c1.057 0 1.64.053 1.64.053.455.034.895.135 1.301.303.481.182.86.471 1.135.86.264.383.4.853.4 1.396 0 .612-.104 1.11-.275 1.448a3.478 3.478 0 0 1-.68.931 5.16 5.16 0 0 1-1.16.83c-.695.359-1.33.564-1.33.564m-99.055-8.57v15.842h2.532l-.096-11.787L15.59 31.524V15.382h-2.533s.135 8.225.151 9.332c-.726-.879-8.204-9.332-8.204-9.332h-2.51zm72.251 0v15.842h2.534l-.098-11.787L87.84 31.524V15.382h-2.535l.154 9.332c-.728-.879-8.206-9.332-8.206-9.332h-2.51zm62.294.231l.002.134.054 4.372.011 3.394-.02 4.53-.05 3.182h.356l4.642-.032 3.461.019 1.637.01L148.26 29l-2.543.02-2.818.015-2.032-.008-1.269-.02c-.002-.342-.017-1.775-.017-1.775l-.009-3.064h2.188l3.22.014 2.208.02-.002-2.282-2.01.02-3.53.015h-2.074c.005-.36.016-2.08.016-2.08l.012-2.241h2.591l3.231.014 1.766.025-.002-2.286h-.35l-1.47.017-3.503.018-2.47-.018-2.36-.017zM52.893 31.225l-.024-3.071-.013-4.058.01-3.279.02-3.182c.393 0 3.692.014 3.692.014l1.546.009 1.134-2.27-7.652.033-7.71-.036 1.142 2.273 1.764-.015s2.728-.005 3.525-.008c0 0 .005.407.022 3.182l.007 3.279-.011 4.058-.022 3.07h2.57m70.244-11.297c.367 1.053.552 2.188.552 3.369 0 1.25-.207 2.423-.61 3.48-.409 1.055-.946 1.944-1.6 2.632-.725.768-1.51 1.332-2.328 1.686a6.8 6.8 0 0 1-2.647.526 6.77 6.77 0 0 1-2.599-.505 6.564 6.564 0 0 1-2.204-1.5c-.711-.71-1.297-1.623-1.73-2.702-.434-1.075-.653-2.3-.653-3.64 0-1.196.174-2.302.518-3.28a8.106 8.106 0 0 1 1.553-2.677 6.708 6.708 0 0 1 2.303-1.726 6.691 6.691 0 0 1 2.812-.616c.99 0 1.926.198 2.777.58s1.594.921 2.214 1.596a7.941 7.941 0 0 1 1.642 2.777zm-2.413 6.21c.32-.793.483-1.69.483-2.662 0-.936-.15-1.87-.443-2.779-.29-.89-.735-1.642-1.322-2.241a4.325 4.325 0 0 0-1.317-.945 3.87 3.87 0 0 0-1.621-.332c-.583 0-1.135.115-1.633.336-.507.23-.97.569-1.378 1.006-.528.562-.946 1.275-1.241 2.115a7.892 7.892 0 0 0-.453 2.66c0 1.035.157 1.973.459 2.79.302.81.735 1.503 1.285 2.06a4.29 4.29 0 0 0 1.325.925 3.82 3.82 0 0 0 1.626.35c.58 0 1.125-.116 1.62-.338a4.452 4.452 0 0 0 1.382-.982c.497-.506.908-1.168 1.228-1.962zm-89.807-6.21a10.24 10.24 0 0 1 .552 3.369c0 1.25-.206 2.423-.61 3.48-.408 1.055-.946 1.944-1.6 2.632-.726.768-1.51 1.332-2.33 1.686a6.783 6.783 0 0 1-2.646.526c-.914 0-1.788-.17-2.6-.505a6.573 6.573 0 0 1-2.202-1.5c-.712-.71-1.296-1.623-1.73-2.702-.433-1.075-.654-2.3-.654-3.64 0-1.196.174-2.302.517-3.28a8.135 8.135 0 0 1 1.554-2.677 6.7 6.7 0 0 1 2.304-1.726 6.675 6.675 0 0 1 2.81-.616c.993 0 1.927.198 2.778.58.85.382 1.595.921 2.213 1.596a7.944 7.944 0 0 1 1.643 2.777zm-2.413 6.21c.32-.793.483-1.69.483-2.662 0-.936-.149-1.87-.444-2.779-.29-.89-.733-1.642-1.32-2.241a4.396 4.396 0 0 0-1.317-.945 3.881 3.881 0 0 0-1.623-.332c-.583 0-1.133.115-1.634.336-.506.23-.968.569-1.374 1.006-.53.562-.95 1.275-1.244 2.115a7.891 7.891 0 0 0-.452 2.66c0 1.035.154 1.973.458 2.79.303.81.736 1.503 1.284 2.06a4.3 4.3 0 0 0 1.325.925c.5.232 1.047.35 1.627.35s1.126-.116 1.622-.338a4.463 4.463 0 0 0 1.38-.982c.496-.506.91-1.168 1.23-1.962zm43.816-6.21c.367 1.053.555 2.188.555 3.369 0 1.25-.207 2.423-.613 3.48-.406 1.055-.944 1.944-1.597 2.632-.726.768-1.51 1.332-2.33 1.686a6.793 6.793 0 0 1-2.645.526c-.917 0-1.793-.17-2.6-.505a6.564 6.564 0 0 1-2.204-1.5c-.713-.71-1.296-1.623-1.73-2.702-.434-1.075-.654-2.3-.654-3.64 0-1.196.175-2.302.518-3.28a8.113 8.113 0 0 1 1.555-2.677 6.68 6.68 0 0 1 2.303-1.726 6.682 6.682 0 0 1 2.812-.616c.99 0 1.925.198 2.776.58s1.595.921 2.21 1.596a7.944 7.944 0 0 1 1.644 2.777zm-2.41 6.21c.32-.793.482-1.69.482-2.662 0-.936-.15-1.87-.444-2.779-.29-.89-.734-1.642-1.32-2.241a4.354 4.354 0 0 0-1.317-.945 3.889 3.889 0 0 0-1.621-.332c-.585 0-1.136.115-1.634.336-.507.23-.97.569-1.377 1.006-.529.562-.947 1.275-1.242 2.115a7.892 7.892 0 0 0-.453 2.66c0 1.035.153 1.973.457 2.79.304.81.737 1.503 1.286 2.06.37.383.816.694 1.324.925.502.232 1.046.35 1.626.35.581 0 1.127-.116 1.623-.338a4.43 4.43 0 0 0 1.38-.982c.496-.506.907-1.168 1.23-1.962zm-32.566-2.185l6.076 7.582 2.054-1.7-4.733-5.594s1.072-.83 1.633-1.434c.718-.776 1.082-1.752 1.082-2.907 0-.896-.242-1.69-.719-2.365a4.695 4.695 0 0 0-1.968-1.555 7.007 7.007 0 0 0-1.903-.509 16.327 16.327 0 0 0-1.951-.117l-2.169.014-1.477.02v.35l.064 5.572V23.4l-.025 4.858-.046 2.966h2.57l-.021-3.678-.015-4.213.006-2.317.026-3.45h.483c1.056 0 1.64.053 1.64.053a4.24 4.24 0 0 1 1.303.303c.48.182.861.471 1.131.86.266.383.401.853.401 1.396 0 .612-.103 1.11-.274 1.448a3.51 3.51 0 0 1-.68.931c-.31.291-.692.588-1.158.83a9.965 9.965 0 0 1-1.33.564m94.154-1.673l-1.027-.454c-1.113-.46-2.63-1.088-2.63-2.544 0-1.06.834-2.127 2.694-2.13 1.927-.003 3.302.748 3.806 1.132v-2.457c-1.344-.644-2.57-.86-3.83-.86-3.124 0-5.396 1.887-5.396 4.49 0 .98.343 1.899.99 2.652.778.962 1.9 1.448 2.716 1.805.004 0 1.022.431 1.022.431.728.288 1.534.64 1.982 1.175.303.358.49.888.49 1.388 0 .985-.808 2.5-3.038 2.45-2.105-.047-3.728-.955-4.29-1.307v2.55c.519.21 2.285.944 4.29.944 3.432 0 5.828-1.96 5.828-4.765 0-2.794-2.172-3.821-3.607-4.5m136.757 8.957l-.023-3.072-.012-4.058.006-3.277s.016-2.437.023-3.183c.394.003 3.691.015 3.691.015l1.546.01 1.135-2.272-7.656.032-7.706-.032 1.142 2.272 1.763-.015 3.526-.01.02 3.183.01 3.277-.016 4.058-.02 3.072zm-92.426.298c-1.03 0-1.956-.145-2.75-.436-.8-.29-1.49-.707-2.051-1.235a5.028 5.028 0 0 1-1.252-1.856c-.272-.697-.41-1.51-.41-2.412 0-.439.003-.957.006-1.555a431.9 431.9 0 0 0 .006-2.16c0-.682-.008-1.496-.022-2.423-.018-.922-.023-2.115-.023-3.54v-.544h2.604l-.014.56c-.008.179-.018.811-.03 1.886a372.723 372.723 0 0 0-.013 5.904c.006.572.006 1.157.006 1.762 0 1.254.342 2.17 1.043 2.803.7.634 1.677.952 2.9.952 1.33 0 2.33-.302 2.975-.898.632-.59.957-1.551.957-2.857 0-.605 0-1.19.004-1.762.005-.568.005-1.123.005-1.652 0-1.747-.008-3.197-.024-4.313a377.65 377.65 0 0 1-.021-1.841v-.544h2.59v.544c0 1.417-.008 2.61-.024 3.54-.014.915-.02 1.731-.02 2.423a863.493 863.493 0 0 0 .009 3.715c0 .902-.137 1.715-.41 2.412a5.039 5.039 0 0 1-1.25 1.856c-.554.524-1.241.937-2.04 1.23-.793.293-1.718.441-2.751.441m47.842-.31l-.031-.349c.009-.442.019-1.236.035-2.376a527.365 527.365 0 0 0 .01-8.233 485.423 485.423 0 0 0-.045-4.492l-.006-.382h2.599l-.003.382a535.96 535.96 0 0 0-.04 3.917 502.08 502.08 0 0 0 .004 8.667c.016 1.195.029 2.035.036 2.517l.045.35h-2.604zm31.435.012l.006-.387a454.38 454.38 0 0 0 .044-6.556c-.329 0-.86-.001-1.6-.004-1.204-.003-2.112-.007-2.717-.007-.734 0-1.61.004-2.634.007-.583.003-1.015.004-1.297.004 0 1.874.007 3.321.019 4.303.011 1.057.02 1.808.026 2.253l.008.387h-2.603l.005-.387c.01-.445.019-1.233.036-2.368a517.845 517.845 0 0 0 .003-8.723c-.009-1.168-.04-4.348-.04-4.348h2.59v.552c0 1.11-.005 2.231-.021 3.328-.012.934-.02 1.846-.023 2.714.247 0 .603.003 1.075.006l2.867.001 2.885-.001c.648-.003 1.123-.006 1.42-.006 0-.868-.008-1.776-.02-2.708a247.584 247.584 0 0 1-.023-3.334v-.552h2.595l-.006.558a791.96 791.96 0 0 0-.055 7.469c0 2.213.007 3.85.023 5.006.013 1.16.026 1.96.032 2.406l.006.387h-2.6zm-60.725-2.345s-4.188-.005-5.49-.005c-.347 0-.732-.003-1.16-.006-.269-.003-.511-.003-.726-.006-.003-.275-.012-1.692-.012-1.692a778.603 778.603 0 0 1 0-7.95c.009-1.248.02-2.354.035-3.31l.004-.57h-2.602l.008.57.036 2.325c.012 1.106.02 2.724.02 4.812a579.308 579.308 0 0 1-.056 7.725l-.005.38h.385c.54 0 8.4.065 8.4.065zm19.2-4.925l6.078 7.583 2.054-1.702-4.734-5.594s1.07-.83 1.633-1.433c.719-.774 1.082-1.751 1.082-2.906 0-.893-.242-1.69-.716-2.361a4.65 4.65 0 0 0-1.973-1.558 7.005 7.005 0 0 0-1.9-.512 16.38 16.38 0 0 0-1.954-.116l-2.165.017-1.48.02v.348l.063 5.571v2.092l-.023 4.858-.045 2.966h2.57l-.024-3.674-.011-4.217.006-2.317.024-3.45h.484c1.056 0 1.64.056 1.64.056a4.29 4.29 0 0 1 1.302.298 2.4 2.4 0 0 1 1.131.862c.266.388.4.855.4 1.394 0 .613-.102 1.112-.273 1.452-.188.371-.422.68-.679.93a5.05 5.05 0 0 1-1.159.827c-.696.36-1.33.566-1.33.566M161.57 22.46h-2.188l.009-3.064s.014-1.436.02-1.78l1.265-.018 2.031-.007 2.82.014.011-.02 1.4.008 1.132-2.232-2.838.036.001.016-3.392.018-4.64-.031h-.357l.051 3.184.019 4.53-.012 3.393-.058 4.729 2.53-.012.025-4.471-.016-2.083h2.072l3.533.017 2.007.02.002-2.286-2.207.022zm45.42 2.421c.18.428.27.953.27 1.56a4.02 4.02 0 0 1-.626 2.199c-.412.646-1.018 1.176-1.8 1.585a8.377 8.377 0 0 1-2.234.768c-.794.157-1.715.237-2.74.237-.75 0-1.525-.011-2.3-.038a47.484 47.484 0 0 1-1.33-.053l-.28-.024.003-.282c.025-1.405.04-2.782.046-4.091.006-1.283.012-2.508.012-3.678a378.784 378.784 0 0 0-.058-7.277v-.282l.282-.019c.101-.007.49-.026 1.25-.058a53.407 53.407 0 0 1 2.129-.046c.785 0 1.523.052 2.186.158a7.844 7.844 0 0 1 1.721.44c.732.293 1.316.716 1.737 1.268.43.56.651 1.25.651 2.054 0 .843-.273 1.602-.805 2.254-.286.35-.602.643-.936.871l-.15.104.174.05c.214.059.421.129.622.21.521.215.986.525 1.38.92.349.35.617.745.796 1.17zm-2.37 2.742c.191-.313.288-.69.288-1.121 0-.33-.056-.626-.17-.88a2.64 2.64 0 0 0-.533-.761c-.209-.211-.518-.39-.905-.528a3.99 3.99 0 0 0-1.335-.214 46.44 46.44 0 0 0-1.535.02h-.587l-.02-.154V22.02l.417-.006a5.839 5.839 0 0 0 1.381-.182c.38-.106.723-.263 1.014-.47.266-.193.494-.442.668-.743.169-.294.252-.615.252-.988 0-.384-.09-.704-.274-.976a1.935 1.935 0 0 0-.777-.667c-.286-.141-.66-.25-1.105-.323a9.104 9.104 0 0 0-1.478-.11c-.35 0-.672.005-.96.012-.074.005-.393.008-.457.01-.018.98-.026 2.031-.03 3.13a584.205 584.205 0 0 0 .009 6.588c.006.812.012 1.39.013 1.733.075.003.404.005.49.008.244.012.482.018.709.018.844 0 1.638-.045 2.357-.131.689-.086 1.27-.259 1.736-.52a2.17 2.17 0 0 0 .833-.779z"/></g></svg>